<mxfile host="app.diagrams.net" agent="Mozilla/5.0 (iPhone; CPU iPhone OS 18_1 like Mac OS X) AppleWebKit/605.1.15 (KHTML, like Gecko) CriOS/130.0.6723.78 Mobile/15E148 Safari/604.1" version="24.8.3">
  <diagram name="Page-1" id="dYD4OC30FUJ3YFSqxW8w">
    <mxGraphModel>
      <root>
        <mxCell id="0" />
        <mxCell id="1" parent="0" />
      </root>
    </mxGraphModel>
  </diagram>
</mxfile>
